<svg width="12" height="12" viewBox="0 0 12 12" fill="none" xmlns="http://www.w3.org/2000/svg">
<path fill-rule="evenodd" clip-rule="evenodd" d="M6 1.75C3.6565 1.75 1.75 3.6565 1.75 6C1.75 8.3435 3.6565 10.25 6 10.25C8.3435 10.25 10.25 8.3435 10.25 6C10.25 3.6565 8.3435 1.75 6 1.75ZM6 11C3.243 11 1 8.757 1 6C1 3.243 3.243 1 6 1C8.757 1 11 3.243 11 6C11 8.757 8.757 11 6 11Z" fill="black" fill-opacity="0.5"/>
<path fill-rule="evenodd" clip-rule="evenodd" d="M5.99707 6.68655C5.79007 6.68655 5.62207 6.51855 5.62207 6.31155V4.10205C5.62207 3.89505 5.79007 3.72705 5.99707 3.72705C6.20407 3.72705 6.37207 3.89505 6.37207 4.10205V6.31155C6.37207 6.51855 6.20407 6.68655 5.99707 6.68655Z" fill="black" fill-opacity="0.5"/>
<path fill-rule="evenodd" clip-rule="evenodd" d="M6.00189 8.39795C5.72539 8.39795 5.49939 8.17445 5.49939 7.89795C5.49939 7.62145 5.72089 7.39795 5.99689 7.39795H6.00189C6.27839 7.39795 6.50189 7.62145 6.50189 7.89795C6.50189 8.17445 6.27839 8.39795 6.00189 8.39795Z" fill="black" fill-opacity="0.5"/>
</svg>
