<svg width="22" height="22" viewBox="0 0 22 22" fill="none" xmlns="http://www.w3.org/2000/svg">
<path fill-rule="evenodd" clip-rule="evenodd" d="M9.24009 17.0434H3.46417C3.08467 17.0434 2.77667 16.7354 2.77667 16.3559C2.77667 15.9764 3.08467 15.6684 3.46417 15.6684H9.24009C9.61959 15.6684 9.92759 15.9764 9.92759 16.3559C9.92759 16.7354 9.61959 17.0434 9.24009 17.0434" fill="white"/>
<path d="M9.24009 17.0434H3.46417C3.08467 17.0434 2.77667 16.7354 2.77667 16.3559C2.77667 15.9764 3.08467 15.6684 3.46417 15.6684H9.24009C9.61959 15.6684 9.92759 15.9764 9.92759 16.3559C9.92759 16.7354 9.61959 17.0434 9.24009 17.0434" stroke="white" stroke-width="0.4"/>
<path fill-rule="evenodd" clip-rule="evenodd" d="M17.5917 8.15872H11.8167C11.4372 8.15872 11.1292 7.85072 11.1292 7.47122C11.1292 7.09172 11.4372 6.78372 11.8167 6.78372H17.5917C17.9712 6.78372 18.2792 7.09172 18.2792 7.47122C18.2792 7.85072 17.9712 8.15872 17.5917 8.15872" fill="white"/>
<path d="M17.5917 8.15872H11.8167C11.4372 8.15872 11.1292 7.85072 11.1292 7.47122C11.1292 7.09172 11.4372 6.78372 11.8167 6.78372H17.5917C17.9712 6.78372 18.2792 7.09172 18.2792 7.47122C18.2792 7.85072 17.9712 8.15872 17.5917 8.15872" stroke="white" stroke-width="0.4"/>
<mask id="mask0_24_365" style="mask-type:alpha" maskUnits="userSpaceOnUse" x="2" y="4" width="7" height="7">
<path fill-rule="evenodd" clip-rule="evenodd" d="M2.75 4.58371H8.45698V10.2593H2.75V4.58371Z" fill="white" stroke="white" stroke-width="0.4"/>
</mask>
<g mask="url(#mask0_24_365)">
<path fill-rule="evenodd" clip-rule="evenodd" d="M5.6034 5.95834C4.78848 5.95834 4.12482 6.61468 4.12482 7.42226C4.12482 8.22893 4.78848 8.88434 5.6034 8.88434C6.41923 8.88434 7.08198 8.22893 7.08198 7.42226C7.08198 6.61468 6.41923 5.95834 5.6034 5.95834M5.6034 10.2593C4.0304 10.2593 2.74982 8.98701 2.74982 7.42226C2.74982 5.85751 4.0304 4.58334 5.6034 4.58334C7.17732 4.58334 8.45698 5.85751 8.45698 7.42226C8.45698 8.98701 7.17732 10.2593 5.6034 10.2593" fill="white"/>
<path d="M5.6034 5.75834C4.67998 5.75834 3.92482 6.50228 3.92482 7.42226H4.32482C4.32482 6.72708 4.89699 6.15834 5.6034 6.15834V5.75834ZM3.92482 7.42226C3.92482 8.34157 4.68022 9.08434 5.6034 9.08434V8.68434C4.89674 8.68434 4.32482 8.11629 4.32482 7.42226H3.92482ZM5.6034 9.08434C6.52757 9.08434 7.28198 8.34149 7.28198 7.42226H6.88198C6.88198 8.11637 6.31089 8.68434 5.6034 8.68434V9.08434ZM7.28198 7.42226C7.28198 6.50236 6.52782 5.75834 5.6034 5.75834V6.15834C6.31065 6.15834 6.88198 6.727 6.88198 7.42226H7.28198ZM5.6034 10.0593C4.13972 10.0593 2.94982 8.87542 2.94982 7.42226H2.54982C2.54982 9.0986 3.92108 10.4593 5.6034 10.4593V10.0593ZM2.94982 7.42226C2.94982 5.96893 4.13989 4.78334 5.6034 4.78334V4.38334C3.92091 4.38334 2.54982 5.74609 2.54982 7.42226H2.94982ZM5.6034 4.78334C7.06778 4.78334 8.25698 5.96889 8.25698 7.42226H8.65698C8.65698 5.74613 7.28685 4.38334 5.6034 4.38334V4.78334ZM8.25698 7.42226C8.25698 8.87547 7.06795 10.0593 5.6034 10.0593V10.4593C7.28668 10.4593 8.65698 9.09856 8.65698 7.42226H8.25698Z" fill="white"/>
</g>
<path fill-rule="evenodd" clip-rule="evenodd" d="M15.9387 14.8573C15.1229 14.8573 14.4592 15.5137 14.4592 16.3203C14.4592 17.1279 15.1229 17.7833 15.9387 17.7833C16.7536 17.7833 17.4164 17.1279 17.4164 16.3203C17.4164 15.5137 16.7536 14.8573 15.9387 14.8573M15.9387 19.1583C14.3648 19.1583 13.0842 17.8851 13.0842 16.3203C13.0842 14.7556 14.3648 13.4823 15.9387 13.4823C17.5117 13.4823 18.7914 14.7556 18.7914 16.3203C18.7914 17.8851 17.5117 19.1583 15.9387 19.1583" fill="white"/>
<path d="M15.9387 14.6573C15.0146 14.6573 14.2592 15.4011 14.2592 16.3203H14.6592C14.6592 15.6262 15.2312 15.0573 15.9387 15.0573V14.6573ZM14.2592 16.3203C14.2592 17.2406 15.0146 17.9833 15.9387 17.9833V17.5833C15.2312 17.5833 14.6592 17.0153 14.6592 16.3203H14.2592ZM15.9387 17.9833C16.8621 17.9833 17.6164 17.2403 17.6164 16.3203H17.2164C17.2164 17.0155 16.6451 17.5833 15.9387 17.5833V17.9833ZM17.6164 16.3203C17.6164 15.4013 16.8622 14.6573 15.9387 14.6573V15.0573C16.6451 15.0573 17.2164 15.626 17.2164 16.3203H17.6164ZM15.9387 18.9583C14.4742 18.9583 13.2842 17.7735 13.2842 16.3203H12.8842C12.8842 17.9966 14.2554 19.3583 15.9387 19.3583V18.9583ZM13.2842 16.3203C13.2842 14.8671 14.4742 13.6823 15.9387 13.6823V13.2823C14.2554 13.2823 12.8842 14.644 12.8842 16.3203H13.2842ZM15.9387 13.6823C17.4022 13.6823 18.5914 14.867 18.5914 16.3203H18.9914C18.9914 14.6442 17.6212 13.2823 15.9387 13.2823V13.6823ZM18.5914 16.3203C18.5914 17.7737 17.4022 18.9583 15.9387 18.9583V19.3583C17.6212 19.3583 18.9914 17.9965 18.9914 16.3203H18.5914Z" fill="white"/>
</svg>
