<svg width="17" height="17" viewBox="0 0 17 17" fill="none" xmlns="http://www.w3.org/2000/svg">
<path fill-rule="evenodd" clip-rule="evenodd" d="M2.47913 7.30837C2.47913 4.05013 5.20188 1.41663 8.49532 1.41663C11.798 1.41663 14.5208 4.05013 14.5208 7.30837C14.5208 8.95024 13.9237 10.4745 12.9409 11.7665C11.8566 13.1916 10.5202 14.4333 9.01601 15.4079C8.67174 15.6332 8.36104 15.6502 7.98319 15.4079C6.4704 14.4333 5.13402 13.1916 4.05906 11.7665C3.07553 10.4745 2.47913 8.95024 2.47913 7.30837ZM6.51254 7.49182C6.51254 8.58333 7.40322 9.44181 8.49532 9.44181C9.58813 9.44181 10.4874 8.58333 10.4874 7.49182C10.4874 6.40881 9.58813 5.50855 8.49532 5.50855C7.40322 5.50855 6.51254 6.40881 6.51254 7.49182Z" fill="#FE0000"/>
</svg>
