<svg width="17" height="17" viewBox="0 0 17 17" fill="none" xmlns="http://www.w3.org/2000/svg">
<path d="M15.3779 14.3721L12.75 11.7654C13.7701 10.4935 14.2641 8.87916 14.1304 7.25425C13.9967 5.62933 13.2456 4.11738 12.0314 3.02928C10.8172 1.94119 9.23227 1.35965 7.60248 1.40424C5.97269 1.44884 4.42192 2.11618 3.26905 3.26905C2.11618 4.42192 1.44884 5.97269 1.40424 7.60248C1.35965 9.23227 1.94119 10.8172 3.02928 12.0314C4.11738 13.2456 5.62933 13.9967 7.25425 14.1304C8.87916 14.2641 10.4935 13.7701 11.7654 12.75L14.3721 15.3567C14.4379 15.4231 14.5163 15.4757 14.6026 15.5117C14.6889 15.5477 14.7815 15.5662 14.875 15.5662C14.9685 15.5662 15.0611 15.5477 15.1474 15.5117C15.2337 15.4757 15.3121 15.4231 15.3779 15.3567C15.5056 15.2246 15.5769 15.0481 15.5769 14.8644C15.5769 14.6807 15.5056 14.5042 15.3779 14.3721ZM7.79166 12.75C6.81099 12.75 5.85235 12.4592 5.03696 11.9144C4.22156 11.3695 3.58604 10.5952 3.21076 9.68913C2.83547 8.78312 2.73728 7.78616 2.9286 6.82434C3.11992 5.86252 3.59215 4.97902 4.28559 4.28559C4.97902 3.59215 5.86251 3.11992 6.82434 2.9286C7.78616 2.73728 8.78312 2.83547 9.68913 3.21076C10.5951 3.58604 11.3695 4.22156 11.9144 5.03696C12.4592 5.85235 12.75 6.811 12.75 7.79166C12.75 9.10669 12.2276 10.3679 11.2977 11.2977C10.3679 12.2276 9.10669 12.75 7.79166 12.75Z" fill="#8A94A6"/>
</svg>
