<svg width="15" height="15" viewBox="0 0 15 15" fill="none" xmlns="http://www.w3.org/2000/svg">
<path fill-rule="evenodd" clip-rule="evenodd" d="M7.5 13.7501C4.05 13.7501 1.25 10.9564 1.25 7.50012C1.25 4.05012 4.05 1.25012 7.5 1.25012C10.9563 1.25012 13.75 4.05012 13.75 7.50012C13.75 10.9564 10.9563 13.7501 7.5 13.7501ZM9.49375 9.81887C9.56875 9.86262 9.65 9.88762 9.7375 9.88762C9.89375 9.88762 10.05 9.80637 10.1375 9.65637C10.2688 9.43762 10.2 9.15012 9.975 9.01262L7.75 7.68762V4.80012C7.75 4.53762 7.5375 4.33137 7.28125 4.33137C7.025 4.33137 6.8125 4.53762 6.8125 4.80012V7.95637C6.8125 8.11887 6.9 8.26887 7.04375 8.35637L9.49375 9.81887Z" fill="#FE0000"/>
</svg>
